<?xml version="1.0" encoding="utf-8"?>
<!-- Generator: Adobe Illustrator 26.2.1, SVG Export Plug-In . SVG Version: 6.00 Build 0)  -->
<svg version="1.1" id="Layer_1" focusable="false" xmlns="http://www.w3.org/2000/svg" xmlns:xlink="http://www.w3.org/1999/xlink"
	 x="0px" y="0px" viewBox="0 0 30 30" style="enable-background:new 0 0 30 30;" xml:space="preserve">
<style type="text/css">
	.st0{fill:none;}
	.st1{fill:#0D3B66;}
</style>
<g>
	<path class="st0" d="M0,30.2V0h30.2v30.2H0z"/>
	<g>
		<path class="st1" d="M13,3C7.5,3,3,7.5,3,13s4.5,10,10,10c2.4,0,4.6-0.9,6.3-2.3l6,6c0.3,0.3,0.6,0.4,1,0.3
			c0.4-0.1,0.6-0.4,0.7-0.7c0.1-0.4,0-0.7-0.3-1l-6-6c1.4-1.7,2.3-3.9,2.3-6.3C23,7.5,18.5,3,13,3z M13,5c4.4,0,8,3.6,8,8
			s-3.6,8-8,8s-8-3.6-8-8S8.6,5,13,5z"/>
	</g>
</g>
</svg>
